<?xml version="1.0" encoding="UTF-8" standalone="no"?>
<!DOCTYPE svg PUBLIC "-//W3C//DTD SVG 1.1//EN"
 "http://www.w3.org/Graphics/SVG/1.1/DTD/svg11.dtd">
<!-- Generated by graphviz version 2.40.1 (20161225.0304)
 -->
<!-- Title: dependencies Pages: 1 -->
<svg width="530pt" height="284pt"
 viewBox="0.00 0.00 530.00 284.00" xmlns="http://www.w3.org/2000/svg" xmlns:xlink="http://www.w3.org/1999/xlink">
<g id="graph0" class="graph" transform="scale(1 1) rotate(0) translate(4 280)">
<title>dependencies</title>
<polygon fill="#ffffff" stroke="transparent" points="-4,4 -4,-280 526,-280 526,4 -4,4"/>
<text text-anchor="start" x="240.0091" y="-42.4" font-family="sans-serif" font-weight="bold" font-size="14.00" fill="#000000">Legend</text>
<polygon fill="#ffffb3" stroke="transparent" points="27,-10 27,-30 47,-30 47,-10 27,-10"/>
<text text-anchor="start" x="50.629" y="-15.4" font-family="sans-serif" font-size="14.00" fill="#000000"> &#160;Declarations</text>
<polygon fill="#8dd3c7" stroke="transparent" points="140,-10 140,-30 160,-30 160,-10 140,-10"/>
<text text-anchor="start" x="163.7251" y="-15.4" font-family="sans-serif" font-size="14.00" fill="#000000"> &#160;Module</text>
<polygon fill="#80b1d3" stroke="transparent" points="226,-10 226,-30 246,-30 246,-10 226,-10"/>
<text text-anchor="start" x="249.7812" y="-15.4" font-family="sans-serif" font-size="14.00" fill="#000000"> &#160;Bootstrap</text>
<polygon fill="#fdb462" stroke="transparent" points="323,-10 323,-30 343,-30 343,-10 323,-10"/>
<text text-anchor="start" x="346.6732" y="-15.4" font-family="sans-serif" font-size="14.00" fill="#000000"> &#160;Providers</text>
<polygon fill="#fb8072" stroke="transparent" points="419,-10 419,-30 439,-30 439,-10 419,-10"/>
<text text-anchor="start" x="442.7258" y="-15.4" font-family="sans-serif" font-size="14.00" fill="#000000"> &#160;Exports</text>
<g id="clust1" class="cluster">
<title>cluster_NgxMaterialContactsModule</title>
<polygon fill="none" stroke="#000000" stroke-dasharray="1,5" points="8,-70 8,-268 514,-268 514,-70 8,-70"/>
</g>
<g id="clust2" class="cluster">
<title>cluster_NgxMaterialContactsModule_declarations</title>
<polygon fill="none" stroke="#000000" points="16,-78 16,-130 506,-130 506,-78 16,-78"/>
</g>
<g id="clust6" class="cluster">
<title>cluster_NgxMaterialContactsModule_exports</title>
<polygon fill="none" stroke="#000000" points="162,-208 162,-260 384,-260 384,-208 162,-208"/>
</g>
<!-- NgxMaterialContactsComponent -->
<g id="node1" class="node">
<title>NgxMaterialContactsComponent</title>
<polygon fill="#ffffb3" stroke="#000000" points="497.8515,-122 296.1485,-122 296.1485,-86 497.8515,-86 497.8515,-122"/>
<text text-anchor="middle" x="397" y="-99.8" font-family="Times,serif" font-size="14.00" fill="#000000">NgxMaterialContactsComponent</text>
</g>
<!-- NgxMaterialContactsModule -->
<g id="node3" class="node">
<title>NgxMaterialContactsModule</title>
<polygon fill="#8dd3c7" stroke="#000000" points="363.0688,-187 360.0688,-191 339.0688,-191 336.0688,-187 182.9312,-187 182.9312,-151 363.0688,-151 363.0688,-187"/>
<text text-anchor="middle" x="273" y="-164.8" font-family="Times,serif" font-size="14.00" fill="#000000">NgxMaterialContactsModule</text>
</g>
<!-- NgxMaterialContactsComponent&#45;&gt;NgxMaterialContactsModule -->
<g id="edge1" class="edge">
<title>NgxMaterialContactsComponent&#45;&gt;NgxMaterialContactsModule</title>
<path fill="none" stroke="#000000" d="M329.5544,-122.1061C329.5544,-122.1061 329.5544,-140.991 329.5544,-140.991"/>
<polygon fill="#000000" stroke="#000000" points="326.0544,-140.9909 329.5544,-150.991 333.0544,-140.991 326.0544,-140.9909"/>
</g>
<!-- NgxMaterialContactsNewUserComponent -->
<g id="node2" class="node">
<title>NgxMaterialContactsNewUserComponent</title>
<polygon fill="#ffffb3" stroke="#000000" points="278.2058,-122 23.7942,-122 23.7942,-86 278.2058,-86 278.2058,-122"/>
<text text-anchor="middle" x="151" y="-99.8" font-family="Times,serif" font-size="14.00" fill="#000000">NgxMaterialContactsNewUserComponent</text>
</g>
<!-- NgxMaterialContactsNewUserComponent&#45;&gt;NgxMaterialContactsModule -->
<g id="edge2" class="edge">
<title>NgxMaterialContactsNewUserComponent&#45;&gt;NgxMaterialContactsModule</title>
<path fill="none" stroke="#000000" d="M230.6592,-122.1061C230.6592,-122.1061 230.6592,-140.991 230.6592,-140.991"/>
<polygon fill="#000000" stroke="#000000" points="227.1593,-140.9909 230.6592,-150.991 234.1593,-140.991 227.1593,-140.9909"/>
</g>
<!-- NgxMaterialContactsComponent  -->
<g id="node4" class="node">
<title>NgxMaterialContactsComponent </title>
<polygon fill="#fb8072" stroke="#000000" points="375.8517,-252 170.1483,-252 170.1483,-216 375.8517,-216 375.8517,-252"/>
<text text-anchor="middle" x="273" y="-229.8" font-family="Times,serif" font-size="14.00" fill="#000000">NgxMaterialContactsComponent </text>
</g>
<!-- NgxMaterialContactsModule&#45;&gt;NgxMaterialContactsComponent  -->
<g id="edge3" class="edge">
<title>NgxMaterialContactsModule&#45;&gt;NgxMaterialContactsComponent </title>
<path fill="none" stroke="#000000" stroke-dasharray="5,2" d="M273,-187.1061C273,-187.1061 273,-205.991 273,-205.991"/>
<polygon fill="#000000" stroke="#000000" points="269.5001,-205.9909 273,-215.991 276.5001,-205.991 269.5001,-205.9909"/>
</g>
</g>
</svg>
