<?xml version="1.0" encoding="UTF-8" standalone="no"?>
<!DOCTYPE svg PUBLIC "-//W3C//DTD SVG 1.1//EN"
 "http://www.w3.org/Graphics/SVG/1.1/DTD/svg11.dtd">
<!-- Generated by graphviz version 2.40.1 (20161225.0304)
 -->
<!-- Title: dependencies Pages: 1 -->
<svg width="610pt" height="284pt"
 viewBox="0.00 0.00 610.00 284.00" xmlns="http://www.w3.org/2000/svg" xmlns:xlink="http://www.w3.org/1999/xlink">
<g id="graph0" class="graph" transform="scale(1 1) rotate(0) translate(4 280)">
<title>dependencies</title>
<polygon fill="#ffffff" stroke="transparent" points="-4,4 -4,-280 606,-280 606,4 -4,4"/>
<text text-anchor="start" x="280.0091" y="-42.4" font-family="sans-serif" font-weight="bold" font-size="14.00" fill="#000000">Legend</text>
<polygon fill="#ffffb3" stroke="transparent" points="67,-10 67,-30 87,-30 87,-10 67,-10"/>
<text text-anchor="start" x="90.629" y="-15.4" font-family="sans-serif" font-size="14.00" fill="#000000"> &#160;Declarations</text>
<polygon fill="#8dd3c7" stroke="transparent" points="180,-10 180,-30 200,-30 200,-10 180,-10"/>
<text text-anchor="start" x="203.7251" y="-15.4" font-family="sans-serif" font-size="14.00" fill="#000000"> &#160;Module</text>
<polygon fill="#80b1d3" stroke="transparent" points="266,-10 266,-30 286,-30 286,-10 266,-10"/>
<text text-anchor="start" x="289.7812" y="-15.4" font-family="sans-serif" font-size="14.00" fill="#000000"> &#160;Bootstrap</text>
<polygon fill="#fdb462" stroke="transparent" points="363,-10 363,-30 383,-30 383,-10 363,-10"/>
<text text-anchor="start" x="386.6732" y="-15.4" font-family="sans-serif" font-size="14.00" fill="#000000"> &#160;Providers</text>
<polygon fill="#fb8072" stroke="transparent" points="459,-10 459,-30 479,-30 479,-10 459,-10"/>
<text text-anchor="start" x="482.7258" y="-15.4" font-family="sans-serif" font-size="14.00" fill="#000000"> &#160;Exports</text>
<g id="clust1" class="cluster">
<title>cluster_MatContactsModule</title>
<polygon fill="none" stroke="#000000" stroke-dasharray="1,5" points="8,-70 8,-268 594,-268 594,-70 8,-70"/>
</g>
<g id="clust2" class="cluster">
<title>cluster_MatContactsModule_declarations</title>
<polygon fill="none" stroke="#000000" points="16,-78 16,-130 586,-130 586,-78 16,-78"/>
</g>
<g id="clust7" class="cluster">
<title>cluster_MatContactsModule_exports</title>
<polygon fill="none" stroke="#000000" points="121,-208 121,-260 495,-260 495,-208 121,-208"/>
</g>
<!-- MatContactsComponent -->
<g id="node1" class="node">
<title>MatContactsComponent</title>
<polygon fill="#ffffb3" stroke="#000000" points="578.3739,-122 425.6261,-122 425.6261,-86 578.3739,-86 578.3739,-122"/>
<text text-anchor="middle" x="502" y="-99.8" font-family="Times,serif" font-size="14.00" fill="#000000">MatContactsComponent</text>
</g>
<!-- MatContactsModule -->
<g id="node4" class="node">
<title>MatContactsModule</title>
<polygon fill="#8dd3c7" stroke="#000000" points="383.5912,-187 380.5912,-191 359.5912,-191 356.5912,-187 252.4088,-187 252.4088,-151 383.5912,-151 383.5912,-187"/>
<text text-anchor="middle" x="318" y="-164.8" font-family="Times,serif" font-size="14.00" fill="#000000">MatContactsModule</text>
</g>
<!-- MatContactsComponent&#45;&gt;MatContactsModule -->
<g id="edge1" class="edge">
<title>MatContactsComponent&#45;&gt;MatContactsModule</title>
<path fill="none" stroke="#000000" d="M456.375,-122.1061C456.375,-141.3391 456.375,-169 456.375,-169 456.375,-169 393.9454,-169 393.9454,-169"/>
<polygon fill="#000000" stroke="#000000" points="393.9454,-165.5001 383.9454,-169 393.9454,-172.5001 393.9454,-165.5001"/>
</g>
<!-- MatContactMenuComponent -->
<g id="node2" class="node">
<title>MatContactMenuComponent</title>
<polygon fill="#ffffb3" stroke="#000000" points="408.0884,-122 227.9116,-122 227.9116,-86 408.0884,-86 408.0884,-122"/>
<text text-anchor="middle" x="318" y="-99.8" font-family="Times,serif" font-size="14.00" fill="#000000">MatContactMenuComponent</text>
</g>
<!-- MatContactMenuComponent&#45;&gt;MatContactsModule -->
<g id="edge2" class="edge">
<title>MatContactMenuComponent&#45;&gt;MatContactsModule</title>
<path fill="none" stroke="#000000" d="M318,-122.1061C318,-122.1061 318,-140.991 318,-140.991"/>
<polygon fill="#000000" stroke="#000000" points="314.5001,-140.9909 318,-150.991 321.5001,-140.991 314.5001,-140.9909"/>
</g>
<!-- MatContactDialogComponent -->
<g id="node3" class="node">
<title>MatContactDialogComponent</title>
<polygon fill="#ffffb3" stroke="#000000" points="209.5322,-122 24.4678,-122 24.4678,-86 209.5322,-86 209.5322,-122"/>
<text text-anchor="middle" x="117" y="-99.8" font-family="Times,serif" font-size="14.00" fill="#000000">MatContactDialogComponent</text>
</g>
<!-- MatContactDialogComponent&#45;&gt;MatContactsModule -->
<g id="edge3" class="edge">
<title>MatContactDialogComponent&#45;&gt;MatContactsModule</title>
<path fill="none" stroke="#000000" d="M169.4858,-122.1061C169.4858,-141.3391 169.4858,-169 169.4858,-169 169.4858,-169 242.4272,-169 242.4272,-169"/>
<polygon fill="#000000" stroke="#000000" points="242.4272,-172.5001 252.4272,-169 242.4272,-165.5001 242.4272,-172.5001"/>
</g>
<!-- MatContactsComponent  -->
<g id="node5" class="node">
<title>MatContactsComponent </title>
<polygon fill="#fb8072" stroke="#000000" points="487.3742,-252 330.6258,-252 330.6258,-216 487.3742,-216 487.3742,-252"/>
<text text-anchor="middle" x="409" y="-229.8" font-family="Times,serif" font-size="14.00" fill="#000000">MatContactsComponent </text>
</g>
<!-- MatContactsModule&#45;&gt;MatContactsComponent  -->
<g id="edge4" class="edge">
<title>MatContactsModule&#45;&gt;MatContactsComponent </title>
<path fill="none" stroke="#000000" stroke-dasharray="5,2" d="M357.1794,-187.1061C357.1794,-187.1061 357.1794,-205.991 357.1794,-205.991"/>
<polygon fill="#000000" stroke="#000000" points="353.6794,-205.9909 357.1794,-215.991 360.6794,-205.991 353.6794,-205.9909"/>
</g>
<!-- MatContactMenuComponent  -->
<g id="node6" class="node">
<title>MatContactMenuComponent </title>
<polygon fill="#fb8072" stroke="#000000" points="312.5889,-252 129.4111,-252 129.4111,-216 312.5889,-216 312.5889,-252"/>
<text text-anchor="middle" x="221" y="-229.8" font-family="Times,serif" font-size="14.00" fill="#000000">MatContactMenuComponent </text>
</g>
<!-- MatContactsModule&#45;&gt;MatContactMenuComponent  -->
<g id="edge5" class="edge">
<title>MatContactsModule&#45;&gt;MatContactMenuComponent </title>
<path fill="none" stroke="#000000" stroke-dasharray="5,2" d="M282.6243,-187.1061C282.6243,-187.1061 282.6243,-205.991 282.6243,-205.991"/>
<polygon fill="#000000" stroke="#000000" points="279.1244,-205.9909 282.6243,-215.991 286.1244,-205.991 279.1244,-205.9909"/>
</g>
</g>
</svg>
