<?xml version="1.0" encoding="UTF-8" standalone="no"?>
<!DOCTYPE svg PUBLIC "-//W3C//DTD SVG 1.1//EN"
 "http://www.w3.org/Graphics/SVG/1.1/DTD/svg11.dtd">
<!-- Generated by graphviz version 2.40.1 (20161225.0304)
 -->
<!-- Title: dependencies Pages: 1 -->
<svg width="610pt" height="284pt"
 viewBox="0.00 0.00 610.00 284.00" xmlns="http://www.w3.org/2000/svg" xmlns:xlink="http://www.w3.org/1999/xlink">
<g id="graph0" class="graph" transform="scale(1 1) rotate(0) translate(4 280)">
<title>dependencies</title>
<polygon fill="#ffffff" stroke="transparent" points="-4,4 -4,-280 606,-280 606,4 -4,4"/>
<text text-anchor="start" x="280.0091" y="-42.4" font-family="sans-serif" font-weight="bold" font-size="14.00" fill="#000000">Legend</text>
<polygon fill="#ffffb3" stroke="transparent" points="67,-10 67,-30 87,-30 87,-10 67,-10"/>
<text text-anchor="start" x="90.629" y="-15.4" font-family="sans-serif" font-size="14.00" fill="#000000"> &#160;Declarations</text>
<polygon fill="#8dd3c7" stroke="transparent" points="180,-10 180,-30 200,-30 200,-10 180,-10"/>
<text text-anchor="start" x="203.7251" y="-15.4" font-family="sans-serif" font-size="14.00" fill="#000000"> &#160;Module</text>
<polygon fill="#80b1d3" stroke="transparent" points="266,-10 266,-30 286,-30 286,-10 266,-10"/>
<text text-anchor="start" x="289.7812" y="-15.4" font-family="sans-serif" font-size="14.00" fill="#000000"> &#160;Bootstrap</text>
<polygon fill="#fdb462" stroke="transparent" points="363,-10 363,-30 383,-30 383,-10 363,-10"/>
<text text-anchor="start" x="386.6732" y="-15.4" font-family="sans-serif" font-size="14.00" fill="#000000"> &#160;Providers</text>
<polygon fill="#fb8072" stroke="transparent" points="459,-10 459,-30 479,-30 479,-10 459,-10"/>
<text text-anchor="start" x="482.7258" y="-15.4" font-family="sans-serif" font-size="14.00" fill="#000000"> &#160;Exports</text>
<g id="clust1" class="cluster">
<title>cluster_MatContactsModule</title>
<polygon fill="none" stroke="#000000" stroke-dasharray="1,5" points="8,-70 8,-268 594,-268 594,-70 8,-70"/>
</g>
<g id="clust2" class="cluster">
<title>cluster_MatContactsModule_declarations</title>
<polygon fill="none" stroke="#000000" points="16,-78 16,-130 586,-130 586,-78 16,-78"/>
</g>
<g id="clust7" class="cluster">
<title>cluster_MatContactsModule_exports</title>
<polygon fill="none" stroke="#000000" points="107,-208 107,-260 481,-260 481,-208 107,-208"/>
</g>
<!-- MatContactDialogComponent -->
<g id="node1" class="node">
<title>MatContactDialogComponent</title>
<polygon fill="#ffffb3" stroke="#000000" points="577.5322,-122 392.4678,-122 392.4678,-86 577.5322,-86 577.5322,-122"/>
<text text-anchor="middle" x="485" y="-99.8" font-family="Times,serif" font-size="14.00" fill="#000000">MatContactDialogComponent</text>
</g>
<!-- MatContactsModule -->
<g id="node4" class="node">
<title>MatContactsModule</title>
<polygon fill="#8dd3c7" stroke="#000000" points="349.5912,-187 346.5912,-191 325.5912,-191 322.5912,-187 218.4088,-187 218.4088,-151 349.5912,-151 349.5912,-187"/>
<text text-anchor="middle" x="284" y="-164.8" font-family="Times,serif" font-size="14.00" fill="#000000">MatContactsModule</text>
</g>
<!-- MatContactDialogComponent&#45;&gt;MatContactsModule -->
<g id="edge1" class="edge">
<title>MatContactDialogComponent&#45;&gt;MatContactsModule</title>
<path fill="none" stroke="#000000" d="M432.5142,-122.1061C432.5142,-141.3391 432.5142,-169 432.5142,-169 432.5142,-169 359.5728,-169 359.5728,-169"/>
<polygon fill="#000000" stroke="#000000" points="359.5728,-165.5001 349.5728,-169 359.5728,-172.5001 359.5728,-165.5001"/>
</g>
<!-- MatContactMenuComponent -->
<g id="node2" class="node">
<title>MatContactMenuComponent</title>
<polygon fill="#ffffb3" stroke="#000000" points="374.0884,-122 193.9116,-122 193.9116,-86 374.0884,-86 374.0884,-122"/>
<text text-anchor="middle" x="284" y="-99.8" font-family="Times,serif" font-size="14.00" fill="#000000">MatContactMenuComponent</text>
</g>
<!-- MatContactMenuComponent&#45;&gt;MatContactsModule -->
<g id="edge2" class="edge">
<title>MatContactMenuComponent&#45;&gt;MatContactsModule</title>
<path fill="none" stroke="#000000" d="M284,-122.1061C284,-122.1061 284,-140.991 284,-140.991"/>
<polygon fill="#000000" stroke="#000000" points="280.5001,-140.9909 284,-150.991 287.5001,-140.991 280.5001,-140.9909"/>
</g>
<!-- MatContactsComponent -->
<g id="node3" class="node">
<title>MatContactsComponent</title>
<polygon fill="#ffffb3" stroke="#000000" points="176.3739,-122 23.6261,-122 23.6261,-86 176.3739,-86 176.3739,-122"/>
<text text-anchor="middle" x="100" y="-99.8" font-family="Times,serif" font-size="14.00" fill="#000000">MatContactsComponent</text>
</g>
<!-- MatContactsComponent&#45;&gt;MatContactsModule -->
<g id="edge3" class="edge">
<title>MatContactsComponent&#45;&gt;MatContactsModule</title>
<path fill="none" stroke="#000000" d="M145.625,-122.1061C145.625,-141.3391 145.625,-169 145.625,-169 145.625,-169 208.0546,-169 208.0546,-169"/>
<polygon fill="#000000" stroke="#000000" points="208.0546,-172.5001 218.0546,-169 208.0546,-165.5001 208.0546,-172.5001"/>
</g>
<!-- MatContactMenuComponent  -->
<g id="node5" class="node">
<title>MatContactMenuComponent </title>
<polygon fill="#fb8072" stroke="#000000" points="472.5889,-252 289.4111,-252 289.4111,-216 472.5889,-216 472.5889,-252"/>
<text text-anchor="middle" x="381" y="-229.8" font-family="Times,serif" font-size="14.00" fill="#000000">MatContactMenuComponent </text>
</g>
<!-- MatContactsModule&#45;&gt;MatContactMenuComponent  -->
<g id="edge4" class="edge">
<title>MatContactsModule&#45;&gt;MatContactMenuComponent </title>
<path fill="none" stroke="#000000" stroke-dasharray="5,2" d="M319.3757,-187.1061C319.3757,-187.1061 319.3757,-205.991 319.3757,-205.991"/>
<polygon fill="#000000" stroke="#000000" points="315.8758,-205.9909 319.3757,-215.991 322.8758,-205.991 315.8758,-205.9909"/>
</g>
<!-- MatContactsComponent  -->
<g id="node6" class="node">
<title>MatContactsComponent </title>
<polygon fill="#fb8072" stroke="#000000" points="271.3742,-252 114.6258,-252 114.6258,-216 271.3742,-216 271.3742,-252"/>
<text text-anchor="middle" x="193" y="-229.8" font-family="Times,serif" font-size="14.00" fill="#000000">MatContactsComponent </text>
</g>
<!-- MatContactsModule&#45;&gt;MatContactsComponent  -->
<g id="edge5" class="edge">
<title>MatContactsModule&#45;&gt;MatContactsComponent </title>
<path fill="none" stroke="#000000" stroke-dasharray="5,2" d="M244.8207,-187.1061C244.8207,-187.1061 244.8207,-205.991 244.8207,-205.991"/>
<polygon fill="#000000" stroke="#000000" points="241.3207,-205.9909 244.8207,-215.991 248.3207,-205.991 241.3207,-205.9909"/>
</g>
</g>
</svg>
