<?xml version="1.0" encoding="UTF-8" standalone="no"?>
<!DOCTYPE svg PUBLIC "-//W3C//DTD SVG 1.1//EN"
 "http://www.w3.org/Graphics/SVG/1.1/DTD/svg11.dtd">
<!-- Generated by graphviz version 2.40.1 (20161225.0304)
 -->
<!-- Title: dependencies Pages: 1 -->
<svg width="760pt" height="284pt"
 viewBox="0.00 0.00 760.00 284.00" xmlns="http://www.w3.org/2000/svg" xmlns:xlink="http://www.w3.org/1999/xlink">
<g id="graph0" class="graph" transform="scale(1 1) rotate(0) translate(4 280)">
<title>dependencies</title>
<polygon fill="#ffffff" stroke="transparent" points="-4,4 -4,-280 756,-280 756,4 -4,4"/>
<text text-anchor="start" x="355.0091" y="-42.4" font-family="sans-serif" font-weight="bold" font-size="14.00" fill="#000000">Legend</text>
<polygon fill="#ffffb3" stroke="transparent" points="142,-10 142,-30 162,-30 162,-10 142,-10"/>
<text text-anchor="start" x="165.629" y="-15.4" font-family="sans-serif" font-size="14.00" fill="#000000"> &#160;Declarations</text>
<polygon fill="#8dd3c7" stroke="transparent" points="255,-10 255,-30 275,-30 275,-10 255,-10"/>
<text text-anchor="start" x="278.7251" y="-15.4" font-family="sans-serif" font-size="14.00" fill="#000000"> &#160;Module</text>
<polygon fill="#80b1d3" stroke="transparent" points="341,-10 341,-30 361,-30 361,-10 341,-10"/>
<text text-anchor="start" x="364.7812" y="-15.4" font-family="sans-serif" font-size="14.00" fill="#000000"> &#160;Bootstrap</text>
<polygon fill="#fdb462" stroke="transparent" points="438,-10 438,-30 458,-30 458,-10 438,-10"/>
<text text-anchor="start" x="461.6732" y="-15.4" font-family="sans-serif" font-size="14.00" fill="#000000"> &#160;Providers</text>
<polygon fill="#fb8072" stroke="transparent" points="534,-10 534,-30 554,-30 554,-10 534,-10"/>
<text text-anchor="start" x="557.7258" y="-15.4" font-family="sans-serif" font-size="14.00" fill="#000000"> &#160;Exports</text>
<g id="clust1" class="cluster">
<title>cluster_NgxMaterialContactsModule</title>
<polygon fill="none" stroke="#000000" stroke-dasharray="1,5" points="8,-70 8,-268 744,-268 744,-70 8,-70"/>
</g>
<g id="clust2" class="cluster">
<title>cluster_NgxMaterialContactsModule_declarations</title>
<polygon fill="none" stroke="#000000" points="16,-78 16,-130 736,-130 736,-78 16,-78"/>
</g>
<g id="clust7" class="cluster">
<title>cluster_NgxMaterialContactsModule_exports</title>
<polygon fill="none" stroke="#000000" points="147,-208 147,-260 619,-260 619,-208 147,-208"/>
</g>
<!-- NgxMaterialContactsComponent -->
<g id="node1" class="node">
<title>NgxMaterialContactsComponent</title>
<polygon fill="#ffffb3" stroke="#000000" points="727.8515,-122 526.1485,-122 526.1485,-86 727.8515,-86 727.8515,-122"/>
<text text-anchor="middle" x="627" y="-99.8" font-family="Times,serif" font-size="14.00" fill="#000000">NgxMaterialContactsComponent</text>
</g>
<!-- NgxMaterialContactsModule -->
<g id="node4" class="node">
<title>NgxMaterialContactsModule</title>
<polygon fill="#8dd3c7" stroke="#000000" points="480.0688,-187 477.0688,-191 456.0688,-191 453.0688,-187 299.9312,-187 299.9312,-151 480.0688,-151 480.0688,-187"/>
<text text-anchor="middle" x="390" y="-164.8" font-family="Times,serif" font-size="14.00" fill="#000000">NgxMaterialContactsModule</text>
</g>
<!-- NgxMaterialContactsComponent&#45;&gt;NgxMaterialContactsModule -->
<g id="edge1" class="edge">
<title>NgxMaterialContactsComponent&#45;&gt;NgxMaterialContactsModule</title>
<path fill="none" stroke="#000000" d="M568.375,-122.1061C568.375,-141.3391 568.375,-169 568.375,-169 568.375,-169 490.2326,-169 490.2326,-169"/>
<polygon fill="#000000" stroke="#000000" points="490.2327,-165.5001 480.2326,-169 490.2326,-172.5001 490.2327,-165.5001"/>
</g>
<!-- NgxMaterialContactDetailsComponent -->
<g id="node2" class="node">
<title>NgxMaterialContactDetailsComponent</title>
<polygon fill="#ffffb3" stroke="#000000" points="508.059,-122 271.941,-122 271.941,-86 508.059,-86 508.059,-122"/>
<text text-anchor="middle" x="390" y="-99.8" font-family="Times,serif" font-size="14.00" fill="#000000">NgxMaterialContactDetailsComponent</text>
</g>
<!-- NgxMaterialContactDetailsComponent&#45;&gt;NgxMaterialContactsModule -->
<g id="edge2" class="edge">
<title>NgxMaterialContactDetailsComponent&#45;&gt;NgxMaterialContactsModule</title>
<path fill="none" stroke="#000000" d="M390,-122.1061C390,-122.1061 390,-140.991 390,-140.991"/>
<polygon fill="#000000" stroke="#000000" points="386.5001,-140.9909 390,-150.991 393.5001,-140.991 386.5001,-140.9909"/>
</g>
<!-- NgxMaterialContactMenuComponent -->
<g id="node3" class="node">
<title>NgxMaterialContactMenuComponent</title>
<polygon fill="#ffffb3" stroke="#000000" points="253.566,-122 24.434,-122 24.434,-86 253.566,-86 253.566,-122"/>
<text text-anchor="middle" x="139" y="-99.8" font-family="Times,serif" font-size="14.00" fill="#000000">NgxMaterialContactMenuComponent</text>
</g>
<!-- NgxMaterialContactMenuComponent&#45;&gt;NgxMaterialContactsModule -->
<g id="edge3" class="edge">
<title>NgxMaterialContactMenuComponent&#45;&gt;NgxMaterialContactsModule</title>
<path fill="none" stroke="#000000" d="M204.125,-122.1061C204.125,-141.3391 204.125,-169 204.125,-169 204.125,-169 289.7849,-169 289.7849,-169"/>
<polygon fill="#000000" stroke="#000000" points="289.785,-172.5001 299.7849,-169 289.7849,-165.5001 289.785,-172.5001"/>
</g>
<!-- NgxMaterialContactsComponent  -->
<g id="node5" class="node">
<title>NgxMaterialContactsComponent </title>
<polygon fill="#fb8072" stroke="#000000" points="610.8517,-252 405.1483,-252 405.1483,-216 610.8517,-216 610.8517,-252"/>
<text text-anchor="middle" x="508" y="-229.8" font-family="Times,serif" font-size="14.00" fill="#000000">NgxMaterialContactsComponent </text>
</g>
<!-- NgxMaterialContactsModule&#45;&gt;NgxMaterialContactsComponent  -->
<g id="edge4" class="edge">
<title>NgxMaterialContactsModule&#45;&gt;NgxMaterialContactsComponent </title>
<path fill="none" stroke="#000000" stroke-dasharray="5,2" d="M442.6794,-187.1061C442.6794,-187.1061 442.6794,-205.991 442.6794,-205.991"/>
<polygon fill="#000000" stroke="#000000" points="439.1794,-205.9909 442.6794,-215.991 446.1794,-205.991 439.1794,-205.9909"/>
</g>
<!-- NgxMaterialContactMenuComponent  -->
<g id="node6" class="node">
<title>NgxMaterialContactMenuComponent </title>
<polygon fill="#fb8072" stroke="#000000" points="387.0664,-252 154.9336,-252 154.9336,-216 387.0664,-216 387.0664,-252"/>
<text text-anchor="middle" x="271" y="-229.8" font-family="Times,serif" font-size="14.00" fill="#000000">NgxMaterialContactMenuComponent </text>
</g>
<!-- NgxMaterialContactsModule&#45;&gt;NgxMaterialContactMenuComponent  -->
<g id="edge5" class="edge">
<title>NgxMaterialContactsModule&#45;&gt;NgxMaterialContactMenuComponent </title>
<path fill="none" stroke="#000000" stroke-dasharray="5,2" d="M343.6243,-187.1061C343.6243,-187.1061 343.6243,-205.991 343.6243,-205.991"/>
<polygon fill="#000000" stroke="#000000" points="340.1244,-205.9909 343.6243,-215.991 347.1244,-205.991 340.1244,-205.9909"/>
</g>
</g>
</svg>
